<svg xmlns="http://www.w3.org/2000/svg" viewBox="0 0 24 24" fill="none" stroke="currentColor" stroke-width="1.3" stroke-linejoin="round" stroke-linecap="round">
  <path d="M12,2.8 L12.94,5.51 L15.80,5.56 L13.52,7.29 L14.35,10.04 L12,8.4 L9.65,10.04 L10.48,7.29 L8.20,5.56 L11.06,5.51 Z"/>
  <path d="M6.9,12.4 L7.84,15.11 L10.70,15.16 L8.42,16.89 L9.25,19.64 L6.9,18 L4.55,19.64 L5.38,16.89 L3.10,15.16 L5.96,15.11 Z"/>
  <path d="M17.1,12.4 L18.04,15.11 L20.90,15.16 L18.62,16.89 L19.45,19.64 L17.1,18 L14.75,19.64 L15.58,16.89 L13.30,15.16 L16.16,15.11 Z"/>
</svg>
